<svg xmlns:dc="http://purl.org/dc/elements/1.1/" xmlns:cc="http://creativecommons.org/ns#"
  xmlns:rdf="http://www.w3.org/1999/02/22-rdf-syntax-ns#" xmlns:svg="http://www.w3.org/2000/svg"
  xmlns="http://www.w3.org/2000/svg" xmlns:xlink="http://www.w3.org/1999/xlink" id="svg503931" viewBox="0 0 1024 768"
  height="768px" width="1024px" version="1.1">
  <metadata id="metadata503937">
    <rdf:rdf>
      <cc:work rdf:about="">
        <dc:format>image/svg+xml</dc:format>
        <dc:type rdf:resource="http://purl.org/dc/dcmitype/StillImage"></dc:type>
      </cc:work>
    </rdf:rdf>
  </metadata>
  <defs id="defs503935"></defs>
  <linearGradient spreadMethod="pad" y2="30%" x2="-10%" y1="120%" x1="30%"
    id="3d_gradient2-logo-734a0d5f-6c07-4310-b53d-e2e131164588">
    <stop id="stop503912" stop-opacity="1" stop-color="#ffffff" offset="0%"></stop>
    <stop id="stop503914" stop-opacity="1" stop-color="#000000" offset="100%"></stop>
  </linearGradient>
  <linearGradient gradientTransform="rotate(-30)" spreadMethod="pad" y2="30%" x2="-10%" y1="120%" x1="30%"
    id="3d_gradient3-logo-734a0d5f-6c07-4310-b53d-e2e131164588">
    <stop id="stop503917" stop-opacity="1" stop-color="#ffffff" offset="0%"></stop>
    <stop id="stop503919" stop-opacity="1" stop-color="#cccccc" offset="50%"></stop>
    <stop id="stop503921" stop-opacity="1" stop-color="#000000" offset="100%"></stop>
  </linearGradient>
  <g id="logo-group">
    <image xlink:href="" id="container" x="272" y="144" width="480" height="480" style="display: none;"
      transform="translate(0 0)"></image>
    <g id="logo-center" transform="translate(0 0)">
      <image xlink:href="" id="icon_container" style="display: none;" x="0" y="0"></image>
      <g id="slogan"
        style="font-style:normal;font-weight:100;font-size:32px;line-height:1;font-family:'Exo 2';font-variant-ligatures:none;text-align:center;text-anchor:middle"
        transform="translate(0 0)"></g>
      <g id="title"
        style="font-style:normal;font-weight:normal;font-size:72px;line-height:1;font-family:'Brandmark Script 5';font-variant-ligatures:normal;text-align:center;text-anchor:middle"
        transform="translate(0 0)">
        <path id="path503940"
          style="font-style:normal;font-weight:normal;font-size:72px;line-height:1;font-family:'Brandmark Script 5';font-variant-ligatures:normal;text-align:center;text-anchor:middle"
          d="m 324.08562,-43.992 -5.544,0.144 1.58401,-3.312 c 0.79199,-1.656 0.072,-3.672 -1.58401,-4.536 -1.728,-0.792 -3.744,-0.072 -4.536,1.584 l -3.096,6.408 -5.75999,0.144 1.87199,-3.456 c 0.864,-1.656 0.288,-3.672 -1.368,-4.608 -1.65599,-0.864 -3.744,-0.216 -4.608,1.368 l -3.744,6.912 -7.776,0.216 c -1.872,0 -3.312,1.584 -3.312,3.456 0.072,1.8 1.584,3.312 3.384,3.312 h 0.144 l 3.81601,-0.144 -1.584,3.096 -7.12801,0.216 c -1.87199,0.072 -3.38399,1.656 -3.312,3.528 0.072,1.8 1.584,3.24 3.384,3.24 h 0.144 l 3.096,-0.072 -1.512,2.808 c -0.86399,1.656 -0.288,3.672 1.368,4.608 0.504,0.288 1.08,0.432 1.584,0.432 1.224,0 2.37601,-0.648 3.024,-1.8 l 3.456,-6.336 6.912,-0.288 -7.056,14.616 c -0.792,1.728 -0.072,3.744 1.584,4.536 0.504,0.216 1.008,0.36 1.512,0.36 1.224,0 2.448,-0.72 3.024,-1.944 l 8.568,-17.856 5.472,-0.144 c 1.872,-0.072 3.384,-1.656 3.312,-3.528 -0.072,-1.872 -1.656,-3.312 -3.52799,-3.24 l -1.94401,0.072 1.296,-2.808 9,-0.216 c 1.87201,-0.072 3.38401,-1.656 3.312,-3.528 -0.072,-1.8 -1.584,-3.312 -3.456,-3.24 z m -16.416,7.128 -1.44,2.88 -6.408,0.288 1.584,-2.952 z"
          stroke-width="0" stroke-linejoin="miter" stroke-miterlimit="2" fill="#3d1139" stroke="#3d1139"
          transform="translate(0 279.03304) translate(248.17978583000013 107.26707758) scale(1.14) translate(-281.53115 52.018353)">
        </path>
        <path id="path503942"
          style="font-style:normal;font-weight:normal;font-size:72px;line-height:1;font-family:'Brandmark Script 5';font-variant-ligatures:normal;text-align:center;text-anchor:middle"
          d="m 465.72425,-84.096 -57.744,2.448 c 0.144,-0.216 0.288,-0.36 0.36,-0.432 1.368,-1.368 1.152,-3.528 -0.216,-4.824 -1.368,-1.296 -4.032,-1.368 -4.824,0.288 -0.072,0.144 -1.872,2.088 -4.752,5.4 l -16.056,0.72 c -1.872,0.072 -3.312,1.656 -3.24,3.528 0.072,1.8 1.584,3.24 3.384,3.24 h 0.144 l 9.432,-0.432 c -6.624,7.416 -15.48,17.352 -24.696,27.576 l -12.24,0.504 c -1.872,0.072 -3.312,1.584 -3.24,3.456 0.072,1.872 1.584,3.312 3.384,3.312 h 0.144 l 5.616,-0.216 c -15.984,17.712 -31.536,35.064 -36.936,40.176 -1.368,1.296 -1.44,3.456 -0.072,4.824 0.648,0.648 1.584,1.008 2.448,1.008 0.864,0 1.728,-0.36 2.376,-1.008 5.976,-5.976 24.192,-25.92 41.616,-45.36 l 49.392,-1.872 c 1.872,-0.072 3.312,-1.656 3.24,-3.528 -0.072,-1.8 -1.584,-3.312 -3.528,-3.24 l -42.768,1.584 c 9.792,-10.944 18.864,-21.024 24.696,-27.648 l 64.368,-2.808 c 1.872,-0.072 3.312,-1.656 3.24,-3.528 -0.072,-1.8 -1.584,-3.24 -3.528,-3.168 z"
          stroke-width="0" stroke-linejoin="miter" stroke-miterlimit="2" fill="#591352" stroke="#591352"
          transform="translate(0 279.03304) translate(295.6612304300001 66.3979271) scale(1.14) translate(-323.18154 87.868485)">
        </path>
        <path id="path503944"
          style="font-style:normal;font-weight:normal;font-size:72px;line-height:1;font-family:'Brandmark Script 5';font-variant-ligatures:normal;text-align:center;text-anchor:middle"
          d="m 485.45,-21.312 c -0.216,0.216 -25.272,23.04 -42.048,23.04 -3.744,0 -6.192,-1.152 -6.264,-6.624 -0.072,-4.032 1.224,-9.432 3.6,-15.84 27.216,-18.216 71.496,-75.888 69.912,-90.216 -0.36,-3.456 -2.808,-5.616 -6.336,-5.616 -13.176,0 -54.576,54.936 -68.976,91.152 -2.736,1.728 -5.112,2.88 -6.912,3.312 -1.8,0.36 -3.024,2.16 -2.592,4.032 0.432,1.8 2.232,2.952 4.032,2.592 0.72,-0.216 1.512,-0.432 2.304,-0.72 -1.152,4.176 -1.8,7.848 -1.8,11.016 0,4.104 1.008,7.416 3.096,9.792 2.304,2.592 5.616,3.888 9.936,3.888 19.44,0 45.576,-23.832 46.656,-24.84 1.368,-1.224 1.44,-3.384 0.216,-4.752 -1.296,-1.368 -3.456,-1.512 -4.824,-0.216 z m -18.792,-46.296 c 17.856,-26.136 32.976,-41.112 37.296,-42.12 -0.144,1.368 -0.936,5.184 -6.12,14.04 -13.248,22.608 -34.776,47.232 -51.192,61.56 5.04,-10.008 11.808,-21.456 20.016,-33.48 z"
          stroke-width="0" stroke-linejoin="miter" stroke-miterlimit="2" fill="#75156b" stroke="#75156b"
          transform="translate(0 279.03304) translate(412.58575223000014 33.68048) scale(1.14) translate(-425.74691 116.568)">
        </path>
        <path id="path503946"
          style="font-style:normal;font-weight:normal;font-size:72px;line-height:1;font-family:'Brandmark Script 5';font-variant-ligatures:normal;text-align:center;text-anchor:middle"
          d="m 542.72712,-16.128 c -1.008,-1.584 -3.096,-2.016 -4.67999,-1.008 -31.82401,20.664 -44.352,18.36 -48.24001,16.344 -2.88,-1.44 -3.38399,-3.672 -3.45599,-4.824 -0.072,-1.152 0,-2.16 0.21599,-3.168 0.144,0 0.36,0.072 0.576,0.072 12.74401,0.216 30.816,-8.28 31.536,-14.904 0.36001,-2.664 -0.72,-4.968 -2.88,-6.336 -5.112,-3.312 -15.12,-0.792 -22.464,3.456 -9.288,5.4 -14.256,13.176 -13.752,21.24 0.288,4.536 2.88,8.352 7.128,10.512 2.304,1.152 5.32801,2.016 9.36,2.016 9.216,0 23.47201,-4.32 45.648,-18.72 1.58401,-1.008 2.01601,-3.096 1.008,-4.68 z m -44.136,-5.472 c 4.752,-2.448 8.78401,-3.096 11.16,-3.096 1.008,0 1.656,0.072 2.08801,0.216 -1.94401,2.376 -11.66401,7.92 -21.45601,8.856 2.88,-3.096 6.552,-5.184 8.208,-5.976 z"
          stroke-width="0" stroke-linejoin="miter" stroke-miterlimit="2" fill="#911785" stroke="#911785"
          transform="translate(0 279.03304) translate(473.9192114300001 130.68717374) scale(1.14) translate(-479.54819 31.474409)">
        </path>
        <path id="path503948"
          style="font-style:normal;font-weight:normal;font-size:72px;line-height:1;font-family:'Brandmark Script 5';font-variant-ligatures:normal;text-align:center;text-anchor:middle"
          d="m 620.2295,-20.52 c -0.936,-1.584 -3.024,-2.16 -4.68,-1.152 -7.776,4.608 -29.952,16.488 -39.168,16.488 -0.936,0 -1.44,-0.072 -1.656,-0.144 -0.144,-1.152 1.08,-4.248 1.728,-5.904 1.656,-4.032 3.168,-7.776 1.152,-10.8 -0.792,-1.152 -2.376,-2.52 -5.544,-2.52 -7.344,0 -17.928,7.776 -27.288,14.616 -2.088,1.512 -4.464,3.312 -6.48,4.608 2.088,-4.752 6.048,-11.808 7.56,-13.896 1.08,-1.512 0.648,-3.672 -0.864,-4.752 -1.512,-1.008 -3.6,-0.648 -4.68,0.864 -0.144,0.144 -12.528,18.792 -9.504,24.48 0.72,1.512 2.16,2.376 3.888,2.376 2.808,0 6.336,-2.52 14.112,-8.208 7.056,-5.184 17.64,-12.888 22.824,-13.32 -0.288,1.152 -0.936,2.88 -1.44,4.032 -1.656,4.104 -3.528,8.712 -1.152,12.24 1.44,2.088 3.888,3.096 7.344,3.096 12.744,0 39.6,-15.696 42.624,-17.424 1.656,-1.008 2.16,-3.096 1.224,-4.68 z"
          stroke-width="0" stroke-linejoin="miter" stroke-miterlimit="2" fill="#ad189e" stroke="#ad189e"
          transform="translate(0 279.03304) translate(531.81050903 138.57872) scale(1.14) translate(-530.33003 24.552)">
        </path>
        <path id="path503950"
          style="font-style:normal;font-weight:normal;font-size:72px;line-height:1;font-family:'Brandmark Script 5';font-variant-ligatures:normal;text-align:center;text-anchor:middle"
          d="m 683.68062,-20.592 c -1.00799,-1.512 -3.168,-1.872 -4.67999,-0.792 -38.88,26.928 -55.44001,22.464 -59.616,20.448 -2.304,-1.152 -3.74401,-2.88 -3.88801,-4.536 -0.432,-7.56 6.55201,-13.536 13.32001,-16.632 6.83999,-3.096 11.736,-2.664 12.312,-2.088 v 0.144 c -0.072,1.872 1.36799,3.456 3.23999,3.6 1.87201,0.144 3.456,-1.368 3.528,-3.24 0.144,-2.592 -1.00799,-4.896 -3.24,-6.264 -5.4,-3.24 -15.55199,-0.504 -22.752,3.888 -8.85599,5.4 -13.68,13.032 -13.176,21.024 0.288,4.176 3.168,7.992 7.70401,10.152 3.384,1.656 7.19999,2.376 11.23199,2.376 19.15201,0 43.992,-15.552 55.15201,-23.328 1.58399,-1.08 1.94399,-3.168 0.86399,-4.752 z"
          stroke-width="0" stroke-linejoin="miter" stroke-miterlimit="2" fill="#c91ab7" stroke="#c91ab7"
          transform="translate(0 279.03304) translate(621.14397563 130.8045812) scale(1.14) translate(-608.69272 31.37142)">
        </path>
        <path id="path503952"
          style="font-style:normal;font-weight:normal;font-size:72px;line-height:1;font-family:'Brandmark Script 5';font-variant-ligatures:normal;text-align:center;text-anchor:middle"
          d="m 743.85237,-20.592 c -1.00799,-1.584 -3.09599,-2.088 -4.68,-1.08 -10.08,6.336 -29.15999,5.832 -36.576,0.864 -1.43999,-0.936 -5.112,-3.456 -18.79199,8.856 1.58399,-4.176 2.808,-7.416 2.88,-7.704 0.64799,-1.728 -0.288,-3.672 -2.01601,-4.32 -1.79999,-0.648 -3.74399,0.288 -4.31999,2.016 -0.072,0.216 -6.264,17.28 -9.79201,23.328 -0.864,1.512 -0.432,3.384 0.93601,4.392 0.64799,0.504 1.29599,0.72 2.01599,0.72 0.93601,0 1.872,-0.432 2.52,-1.152 9.576,-10.368 20.016,-19.368 23.256,-20.232 10.512,6.624 32.18401,6.12 43.488,-1.008 1.584,-1.008 2.088,-3.096 1.08,-4.68 z"
          stroke-width="0" stroke-linejoin="miter" stroke-miterlimit="2" fill="#e51cd0" stroke="#e51cd0"
          transform="translate(0 279.03304) translate(691.1596862299999 139.00031936) scale(1.14) translate(-670.11001 24.182176)">
        </path>
      </g>
      <image xlink:href="" id="icon" style="display: none;" x="0" y="0"></image>
    </g>
  </g>
</svg>